<svg xmlns="http://www.w3.org/2000/svg" width="250" height="85" version="1.2" viewBox="0 0 636 218"><style>path{fill:#000}@media (prefers-color-scheme:dark){path{fill:#fff}}</style><path fill-rule="evenodd" d="M216 108.9c0 14.2-2.8 28.2-8.2 41.3-5.4 13.1-13.4 25-23.4 35-10 10-21.9 18-35 23.4-13.1 5.4-27.2 8.2-41.4 8.2s-28.2-2.8-41.3-8.2c-13.1-5.4-25-13.4-35.1-23.4-10-10-17.9-21.9-23.4-35C2.8 137.1 0 123.1 0 108.9c0-14.2 2.8-28.2 8.2-41.3 5.5-13.1 13.4-25 23.4-35 10.1-10 22-18 35.1-23.4C79.8 3.8 93.8 1 108 1c14.2 0 28.3 2.8 41.4 8.2 13.1 5.4 25 13.4 35 23.4 10 10 18 21.9 23.4 35 5.4 13.1 8.2 27.1 8.2 41.3zM47.4 83.1c-9.8 14.6-10.5 33.8-1.4 49 8.9 14.9 26.4 23.5 43.7 20 10.3-2.1 20.6-8.4 26.5-17.5q.4-.7.9-.1c21 21.6 55.3 9.5 60.2-19.3 5.9-34.6-34.8-58.5-60.3-32.1q-.1 0-.2.1H116.5l-.2-.2c-16.9-24.3-52.2-24.6-68.9.1zm25 50.3c-3.1-1.3-5.8-3.3-8.1-5.8s-4.2-5.4-5.4-8.6c-1.3-3.3-1.9-6.7-1.9-10.3 0-3.5.6-6.9 1.9-10.2 1.2-3.2 3.1-6.1 5.4-8.6 2.3-2.5 5-4.5 8.1-5.8 3-1.3 6.2-2 9.5-2s6.5.7 9.6 2c3 1.3 5.8 3.3 8.1 5.8s4.1 5.4 5.4 8.6c1.2 3.3 1.9 6.7 1.9 10.3 0 3.5-.7 6.9-1.9 10.2-1.3 3.2-3.1 6.1-5.4 8.6-2.3 2.5-5.1 4.5-8.1 5.8-3.1 1.3-6.3 2-9.6 2s-6.5-.7-9.5-2zm62.7-6c-2.2-1-4.2-2.4-5.9-4.2-1.6-1.9-3-4-3.9-6.4-.9-2.3-1.3-4.9-1.3-7.4 0-2.6.5-5.1 1.4-7.5.9-2.3 2.3-4.4 3.9-6.2 1.7-1.8 3.7-3.3 5.9-4.2 2.2-1 4.5-1.5 6.9-1.5 2.4 0 4.7.5 6.9 1.5s4.2 2.4 5.8 4.2c1.7 1.9 3 4 3.9 6.4.9 2.3 1.4 4.9 1.4 7.4 0 2.6-.5 5.1-1.4 7.5-.9 2.3-2.3 4.4-4 6.2-1.6 1.8-3.6 3.3-5.8 4.2-2.2 1-4.6 1.5-6.9 1.5-2.4 0-4.7-.5-6.9-1.5z"/><path d="M322 40.4V51q0 .2.1.4t.2.3q.2.2.4.3h19.7q.4 0 .5.4l.1 2.3q.1.5-.4.5h-20.1q-.8 0-1.6-.3-.7-.3-1.3-.9-.5-.5-.8-1.3-.3-.7-.3-1.5V26.5q0-4.5 4.5-4.5h19.6q.3 0 .2.3l-.1 2.9q0 .2-.2.2l-19.5-.1q-.1 0-.3.1-.2.1-.3.2-.2.1-.2.3-.1.2-.1.4L322 36q0 .7.7.7h18.8q.9 0 .9.8v1.7q-.1.7-.8.7l-19-.1q-.6 0-.6.6zM378 22.4c0-.2.1-.3.3-.3h2.9c.2 0 .3.1.3.3v32.5c0 .2-.1.3-.3.3h-2.9c-.2 0-.3-.1-.3-.3zM442.2 50.9V40.7q0-1.2 1.1-1.3h1q1.4-.1 1.4 1.3v10.7q0 3.7-3.7 3.8-6.4.2-13.1 0c-12-.4-12.8-12.4-11.7-21.6q1.4-11.1 12.3-11.5 7-.2 14.9 0 .8.1.7.9l-.1 1.6q-.1.7-.8.7-8.3-.2-15 .1c-10.4.4-9.5 14.5-7.5 21.3 1.2 4.5 4.9 5.3 9 5.4q5.4 0 10.5-.1 1 0 1-1.1zM484.7 40.6v14.2q0 .1-.1.2l-.1.1q0 .1-.1.1H481.5q-.1 0-.2-.1l-.1-.1q-.1 0-.1-.1v-.2l-.1-32.1q0-.1.1-.2 0-.1.1-.2l.1-.1h.2l2.7-.1q.1 0 .2.1.1 0 .1.1.1 0 .1.1.1.1.1.2v14q0 .1.1.1l.1.1q.1.1.2.1l18.9-.1h.2q.1 0 .2-.1l.1-.1V22.4q0-.1.1-.2.1 0 .2-.1h.1l2.7-.1h.2q.1.1.2.1 0 .1.1.2V55q-.1 0-.1.1-.1.1-.2.1H504.8q-.1-.1-.2-.1 0-.1-.1-.2V40.6q0-.1-.1-.1 0-.1-.1-.2 0-.1-.1-.1h-.2l-18.9-.1h-.2q0 .1-.1.1-.1.1-.1.2v.2zM554 25.3l-12.3.1h-.2l-.1-.1q-.1-.1-.1-.2l-.1-.1-.2-2.5q0-.5.5-.5h29.2q1.5 0 1 1.4-.2.5-.1 1 .3.9-.6.9h-12q-.2 0-.3.1-.1 0-.2.1t-.2.3v.2l-.1 28.6q0 .6-.6.6h-2.3q-.1 0-.2-.1-.1 0-.2-.1t-.1-.2-.1-.2V26q0-.1-.1-.3 0-.1-.1-.2t-.2-.1q-.2-.1-.3-.1z"/><path fill-rule="evenodd" d="M444.8 128.3h-33.9q-.1.1-.3.2l-.2.2q-.1.1-.2.3l-6.1 15.5q-.1.2-.2.3l-.2.2q-.2.1-.3.2h-15.1q0-.1-.1-.1 0-.1-.1-.2 0-.1.1-.2 13.6-32.6 27.7-65.9c2.9-7 8.8-7.7 15.4-7 6.8.7 8.3 5.4 11.1 11.9q12.7 30 25.6 60.7v.3q0 .2-.1.3l-.2.2h-14.5q-.1 0-.3-.1-.1 0-.3-.1l-.2-.2q-.1-.1-.2-.3l-6.5-15.7q0-.1-.1-.2l-.2-.2q-.1-.1-.3-.1-.1-.1-.3-.1zm-29.7-12q-.1.2-.1.4t.1.3l.3.3q.2.1.4.1h24.6q.2 0 .3-.1.2-.1.3-.3.1-.1.2-.3 0-.2-.1-.4l-12.3-30.6q-.1-.2-.3-.3-.2-.1-.4-.1-.3 0-.5.1t-.2.3z"/><path d="M314.4 94.6q-.2-.1-.4 0-.1 0-.3.1l-.2.2q-.1.1-.2.3-6.9 24.3-11.9 42.1-2.1 7.3-9.3 8.7c-6 1.2-13.2.4-16.5-5.4q-1.8-3-2.7-6.3-8.7-30.2-17.5-60.6v-.3q0-.1.1-.3.1-.1.2-.1.1-.1.3-.1h17.8q.5 0 .6.5 6 23.1 13 49.2.2 1 .8 1.7.2.3.4.4.3.1.5 0 .3 0 .5-.2t.3-.4q6-21.2 12.5-44.2 1.6-5.8 7.3-7.2c4.7-1.2 11.1-.7 14.3 3.2q1.4 1.7 2.7 6.4 5.8 20.7 11.7 41.5v.1q0 .1.1.2l.1.1q.1 0 .1.1 1.5 1 2-.8 6.2-22.8 13.3-50.1 0-.1.1-.2l.2-.2q.1-.1.2-.1h18.2q.2.1.3.2 0 .1.1.3v.3q-7.9 26.3-16.2 55.8c-3.1 10.9-5.5 18.2-18.9 16.8q-8.8-1-11.1-9.2-5.7-20.3-11.8-41.8-.2-.6-.7-.7zM518.3 136.8h.7q.3 0 .6-.2t.5-.4q.3-.3.4-.6 11.9-31.5 23.7-62.5V73q.1 0 .1-.1h.2l10.2-.1q.1 0 .1.1h.1v.1q-13.5 33.9-27 67.3-2.8 6.9-10.4 5.9-5.4-.6-7.4-5.7-13.6-33.7-26.9-67.4-.1 0-.1-.1h.1v-.1h.1l10.2-.1h.1q0 .1.1.1l.1.1v.1q11.7 31 23.4 62.2.5 1.3 1.1 1.5zM588.3 106.1l43.9.1q1.3 0 1.3 1.3v1.5q0 1.2-1.1 1.2h-44.1q-.8 0-.8.8v25.4q0 4.7 4.6 4.7 19.4 0 42 .1.4 0 .5.4.2 1.4-.1 2.9-.1.6-.6.6-28.2.1-42.7 0-8.5-.1-8.4-9.1.1-25.2-.1-50c-.1-6.9.2-13 8.5-13q22.3-.1 42.3-.1.8 0 .8.8v2.8l-.2.2-.2.2h-.3l-41.8.1q-4.3 0-4.3 4.3v24q0 .8.8.8z"/></svg>
