<?xml version="1.0" encoding="UTF-8"?>
<svg id="Livello_2" data-name="Livello 2" xmlns="http://www.w3.org/2000/svg" viewBox="0 0 32 32">
  <g id="Livello_1-2" data-name="Livello 1">
    <path d="M16,0C7.16,0,0,7.16,0,16s7.16,16,16,16,16-7.16,16-16S24.84,0,16,0ZM7.37,9.11c.03-.29,1.11-4.88,5.54-5.81-.97,1.06-1.86,3.39-1.17,5.81.58,2.03-1.17,2.9-2.04,2.9s-2.63-.29-2.33-2.9ZM3.47,12.59c.59,1.31,2.38,3.05,4.89,3.38,2.11.28,2.21,2.22,1.86,3.02-.35.8-1.31,2.28-3.61.97-.26-.15-4.05-2.96-3.14-7.37ZM14.21,26.35c-.27.12-4.8,1.48-7.83-1.87,1.41.31,3.88-.09,5.64-1.9,1.48-1.52,3.11-.45,3.55.31.44.75,1.06,2.41-1.36,3.46ZM16.43,9.11c-.44-.75-1.06-2.41,1.36-3.46.27-.12,4.8-1.48,7.83,1.87-1.41-.31-3.88.09-5.64,1.9-1.48,1.52-3.11.45-3.55-.31ZM24.63,22.89c-.03.29-1.11,4.88-5.54,5.81.97-1.06,1.86-3.39,1.17-5.81-.58-2.03,1.17-2.9,2.04-2.9s2.63.29,2.33,2.9ZM23.65,16.03c-2.11-.28-2.21-2.22-1.86-3.02.35-.8,1.31-2.28,3.61-.97.26.15,4.05,2.96,3.14,7.37-.59-1.31-2.38-3.05-4.89-3.38Z" fill="#222221"/>
  </g>
</svg>